# xmcd
#
# Track frame offsets:
#	150
#	17078
#	37417
#	57286
#	70576
#	81487
#	92906
#	106519
#	122560
#	135946
#	148736
#	166077
#	182294
#	200458
#	218844
#	230841
#	245214
#	258962
#	272659
#	286168
#	294613
#	311402
#	329617
#	343436
#
# Disc length: 4866 seconds
#
# Revision: 0
# Processed by: cddbd v1.5.1PL0 Copyright (c) Steve Scherf et al.
# Submitted via: audiograbber 1.83.01
#
DISCID=6e130018
DTITLE=Steve Earle - Collection 1
DYEAR=2004
DGENRE=Country Rock
TTITLE0=Before They Make Me Run
TTITLE1=Bible And A Gun
TTITLE2=Copperhead Road
TTITLE3=Devil's Right Hand
TTITLE4=Dirty Old Town
TTITLE5=Guitar Town
TTITLE6=High Fashion Queen
TTITLE7=Hillbilly Highway
TTITLE8=I Feel Allright
TTITLE9=I Remember You
TTITLE10=Jerusalem
TTITLE11=John Walker's Blues
TTITLE12=Johnny Come Lately
TTITLE13=Johnny Too Bad
TTITLE14=Nowhere Road
TTITLE15=Regular Guy
TTITLE16=San Antonio Girl
TTITLE17=Six Days On The Road
TTITLE18=The Galway Girl
TTITLE19=Wherever I Go
TTITLE20=Poison Lovers
TTITLE21=The Rain Came Down
TTITLE22=Some Dreams
TTITLE23=Justice in Ontario
EXTD=
EXTT0=
EXTT1=
EXTT2=
EXTT3=
EXTT4=
EXTT5=
EXTT6=
EXTT7=
EXTT8=
EXTT9=
EXTT10=
EXTT11=
EXTT12=
EXTT13=
EXTT14=
EXTT15=
EXTT16=
EXTT17=
EXTT18=
EXTT19=
EXTT20=
EXTT21=
EXTT22=
EXTT23=
PLAYORDER=
